<svg width="106" height="120" viewBox="0 0 106 120" fill="none" xmlns="http://www.w3.org/2000/svg">
<path d="M9.62571 108.004L0 0H105.806L96.1671 107.987L52.8386 120L9.62571 108.004Z" fill="#1572B6"/>
<path d="M52.9028 110.82L87.9171 101.113L96.1543 8.83276H52.9028V110.82Z" fill="#33A9DC"/>
<path d="M52.9028 47.9613H70.4314L71.64 34.397H52.9028V21.1499H86.1171L85.8 24.7028L82.5471 61.2085H52.9028V47.9613V47.9613Z" fill="white"/>
<path d="M52.984 82.3629L52.924 82.3801L38.1726 78.3944L37.2297 67.8301H23.9312L25.7869 88.6287L52.9197 96.1629L52.984 96.1458V82.3629V82.3629Z" fill="#EBEBEB"/>
<path d="M69.3042 60.6472L67.7099 78.3858L52.937 82.3715V96.1544L80.0913 88.6287L80.2927 86.3915L82.5942 60.6472H69.3042V60.6472Z" fill="white"/>
<path d="M52.9499 21.1499V34.397H20.9528L20.6871 31.4185L20.0828 24.7028L19.7656 21.1499H52.9499V21.1499ZM52.9028 47.9613V61.2085H38.3356L38.0699 58.2299L37.4699 51.5142L37.1528 47.9613H52.9028V47.9613Z" fill="#EBEBEB"/>
</svg>
