<svg width="50" height="50" viewBox="0 0 50 50" fill="none" xmlns="http://www.w3.org/2000/svg">
<path d="M25 49C38.2548 49 49 38.2548 49 25C49 11.7452 38.2548 1 25 1C11.7452 1 1 11.7452 1 25C1 38.2548 11.7452 49 25 49Z" fill="#EA4C89"/>
<path fill-rule="evenodd" clip-rule="evenodd" d="M25 0C11.1985 0 0 11.1985 0 25C0 38.8015 11.1985 50 25 50C38.7744 50 50 38.8015 50 25C50 11.1985 38.7744 0 25 0ZM41.513 11.5239C44.4957 15.1573 46.2853 19.7939 46.3395 24.8102C45.6345 24.6746 38.5846 23.2375 31.4805 24.1323C31.3178 23.7798 31.1822 23.4002 31.0196 23.0206C30.5857 21.9902 30.0976 20.9328 29.6096 19.9295C37.4729 16.73 41.0521 12.1204 41.513 11.5239ZM25 3.68763C30.423 3.68763 35.385 5.72125 39.154 9.0564C38.7744 9.5987 35.5477 13.91 27.9555 16.757C24.4577 10.3308 20.5802 5.0705 19.9837 4.25705C21.5835 3.87744 23.2646 3.68763 25 3.68763ZM15.9165 5.69415C16.4859 6.45335 20.282 11.7408 23.834 18.0315C13.8557 20.6887 5.0434 20.6345 4.09436 20.6345C5.4772 14.0185 9.9512 8.5141 15.9165 5.69415ZM3.6334 25.0271C3.6334 24.8102 3.6334 24.5933 3.6334 24.3764C4.55531 24.4035 14.9133 24.5391 25.5694 21.3395C26.1931 22.5326 26.7625 23.7527 27.3048 24.9729C27.0336 25.0543 26.7353 25.1356 26.4642 25.2169C15.4555 28.769 9.5987 38.4762 9.11065 39.2896C5.72125 35.5206 3.6334 30.5043 3.6334 25.0271ZM25 46.3666C20.0651 46.3666 15.5098 44.6855 11.9035 41.8655C12.2831 41.0792 16.6215 32.7277 28.6605 28.525C28.7147 28.4979 28.7419 28.4978 28.7961 28.4707C31.8059 36.2527 33.026 42.7874 33.3514 44.6584C30.7755 45.7701 27.9555 46.3666 25 46.3666ZM36.9035 42.7061C36.6865 41.4046 35.5478 35.1681 32.7549 27.4946C39.4523 26.4371 45.3091 28.1725 46.0412 28.4165C45.1193 34.3547 41.7028 39.4794 36.9035 42.7061Z" fill="#C32361"/>
</svg>
