<svg width="50" height="50" viewBox="0 0 50 50" fill="none" xmlns="http://www.w3.org/2000/svg">
<path d="M49.9999 25C49.9999 11.1929 38.8071 6.72764e-05 25 6.72764e-05C11.1929 6.72764e-05 0 11.1929 0 25C0 37.4782 9.14213 47.8208 21.0937 49.6963V32.2266H14.7461V25H21.0937V19.4922C21.0937 13.2266 24.826 9.76568 30.5366 9.76568C33.2718 9.76568 36.1328 10.254 36.1328 10.254V16.4063H32.9803C29.8747 16.4063 28.9062 18.3334 28.9062 20.3104V25H35.8398L34.7314 32.2266H28.9062V49.6963C40.8578 47.8208 49.9999 37.4782 49.9999 25Z" fill="#1877F2"/>
<path d="M34.7314 32.2266L35.8398 25H28.9062V20.3104C28.9062 18.3334 29.8747 16.4063 32.9803 16.4063H36.1328V10.254C36.1328 10.254 33.2718 9.76569 30.5366 9.76569C24.8261 9.76569 21.0937 13.2266 21.0937 19.4922V25H14.7461V32.2266H21.0937V49.6963C22.3665 49.896 23.6711 50 25 50C26.3289 50 27.6334 49.896 28.9062 49.6963V32.2266H34.7314Z" fill="white"/>
</svg>
