<svg width="80" height="120" viewBox="0 0 80 120" fill="none" xmlns="http://www.w3.org/2000/svg">
<path d="M20 120C31.04 120 40 111.04 40 100V80H20C8.96 80 0 88.96 0 100C0 111.04 8.96 120 20 120Z" fill="#0ACF83"/>
<path d="M0 60C0 48.96 8.96 40 20 40H40V80H20C8.96 80 0 71.04 0 60Z" fill="#A259FF"/>
<path d="M0 20C0 8.96 8.96 0 20 0H40V40H20C8.96 40 0 31.04 0 20Z" fill="#F24E1E"/>
<path d="M40 0H60C71.04 0 80 8.96 80 20C80 31.04 71.04 40 60 40H40V0Z" fill="#FF7262"/>
<path d="M80 60C80 71.04 71.04 80 60 80C48.96 80 40 71.04 40 60C40 48.96 48.96 40 60 40C71.04 40 80 48.96 80 60Z" fill="#1ABCFE"/>
</svg>
