<svg width="106" height="120" viewBox="0 0 106 120" fill="none" xmlns="http://www.w3.org/2000/svg">
<path d="M9.63 108.004L0 0H105.814L96.1714 107.987L52.8429 120L9.63 108.004Z" fill="#E44F26"/>
<path d="M52.907 110.82L87.9213 101.113L96.1584 8.83276H52.907V110.82Z" fill="#F1662A"/>
<path d="M52.9072 48.8871H35.3786L34.17 35.3228H52.9072V22.0757H19.6929L20.01 25.6328L23.2629 62.1343H52.9072V48.8871V48.8871ZM52.9072 83.2885L52.8472 83.3057L38.0957 79.3243L37.1529 68.76H23.8543L25.71 89.5543L52.8472 97.0885L52.9072 97.0714V83.2885Z" fill="#EBEBEB"/>
<path d="M52.8599 48.8871V62.1343H69.1713L67.637 79.3157L52.8599 83.3014V97.0843L80.0184 89.5543L80.2156 87.3171L83.327 52.4443L83.6527 48.8871H52.8599V48.8871ZM52.8599 22.0757V35.3228H84.857L85.1227 32.3485L85.727 25.6328L86.0441 22.0757H52.8599V22.0757Z" fill="white"/>
</svg>
