<svg width="120" height="120" viewBox="0 0 120 120" fill="none" xmlns="http://www.w3.org/2000/svg">
<path d="M0 0H120V120H0V0Z" fill="#F7DF1E"/>
<path d="M31.5525 100.281L40.7353 94.7232C42.5072 97.8643 44.1187 100.522 47.9845 100.522C51.69 100.522 54.0267 99.0727 54.0267 93.4346V55.0918H65.3034V93.594C65.3034 105.274 58.4569 110.59 48.4678 110.59C39.4467 110.59 34.2103 105.918 31.552 100.28L31.5525 100.281ZM71.4286 99.0723L80.6105 93.7562C83.0278 97.7035 86.1694 100.603 91.7269 100.603C96.3998 100.603 99.3792 98.2669 99.3792 95.0448C99.3792 91.1785 96.3183 89.8088 91.163 87.5541L88.3444 86.3448C80.2083 82.8821 74.8115 78.5321 74.8115 69.3493C74.8115 60.8912 81.2555 54.4468 91.3247 54.4468C98.4937 54.4468 103.649 56.9443 107.354 63.4688L98.5734 69.1079C96.6398 65.6443 94.5464 64.2751 91.3242 64.2751C88.0214 64.2751 85.927 66.3694 85.927 69.1079C85.927 72.4908 88.0214 73.861 92.8542 75.9554L95.6733 77.1633C105.259 81.2719 110.656 85.4602 110.656 94.884C110.656 105.034 102.682 110.592 91.9683 110.592C81.4969 110.592 74.7305 105.598 71.4281 99.0727" fill="black"/>
</svg>
