<svg width="135" height="120" viewBox="0 0 135 120" fill="none" xmlns="http://www.w3.org/2000/svg">
<g clip-path="url(#clip0_322_151)">
<path d="M110.781 38.8549C109.347 38.3629 107.901 37.9072 106.444 37.488C106.688 36.488 106.914 35.5002 107.114 34.5296C110.397 18.5923 108.251 5.75278 100.919 1.52542C93.8905 -2.52722 82.3953 1.69857 70.7858 11.8023C69.6416 12.7998 68.5228 13.8261 67.4305 14.8802C66.6993 14.1792 65.9551 13.4919 65.1984 12.8186C53.0311 2.01542 40.8353 -2.53774 33.5121 1.70173C26.4895 5.76699 24.41 17.837 27.3658 32.9412C27.6599 34.4371 27.9919 35.9253 28.3616 37.4044C26.6353 37.8949 24.9695 38.417 23.3753 38.9728C9.11 43.9465 0 51.7407 0 59.8254C0 68.1754 9.78 76.5507 24.6379 81.6291C25.8425 82.0391 27.057 82.4191 28.2805 82.7686C27.8832 84.3616 27.5304 85.9653 27.2226 87.578C24.4047 102.42 26.6053 114.205 33.6089 118.244C40.8426 122.416 52.9837 118.129 64.8053 107.794C65.7639 106.954 66.7014 106.09 67.6168 105.203C68.7998 106.345 70.0143 107.453 71.2589 108.526C82.7105 118.38 94.02 122.359 101.017 118.309C108.244 114.125 110.593 101.465 107.543 86.0623C107.303 84.8556 107.034 83.6549 106.735 82.4612C107.588 82.2086 108.425 81.9486 109.241 81.678C124.687 76.5607 134.737 68.287 134.737 59.8254C134.737 51.7112 125.333 43.8644 110.781 38.8549V38.8549ZM107.431 76.2149C106.694 76.4586 105.938 76.6938 105.167 76.9228C103.462 71.5244 101.161 65.7844 98.3447 59.8533C101.032 54.0638 103.245 48.397 104.902 43.0338C106.281 43.4328 107.618 43.8533 108.907 44.297C121.376 48.5896 128.981 54.9354 128.981 59.8254C128.981 65.0338 120.767 71.7954 107.431 76.2149V76.2149ZM101.897 87.1801C103.245 93.9907 103.437 100.149 102.544 104.963C101.742 109.289 100.128 112.172 98.1326 113.328C93.8868 115.785 84.8063 112.591 75.0132 104.163C73.8555 103.165 72.7257 102.135 71.6253 101.074C75.4221 96.9217 79.2163 92.0949 82.9195 86.7338C89.4332 86.1559 95.5868 85.2107 101.167 83.9207C101.436 85.0013 101.679 86.0881 101.897 87.1801V87.1801ZM45.9347 112.903C41.7863 114.368 38.4821 114.41 36.4847 113.258C32.2347 110.807 30.4679 101.344 32.8779 88.6517C33.1644 87.1519 33.4924 85.6602 33.8616 84.1786C39.3805 85.3996 45.4895 86.2775 52.0184 86.807C55.7468 92.0528 59.6505 96.8744 63.5847 101.096C62.7487 101.905 61.8928 102.694 61.0179 103.461C55.79 108.03 50.5516 111.272 45.9347 112.903V112.903ZM26.5 76.1828C19.93 73.937 14.5042 71.0186 10.7853 67.8338C7.44316 64.9723 5.75632 62.1307 5.75632 59.8254C5.75632 54.9191 13.0705 48.6612 25.27 44.408C26.7505 43.8923 28.3 43.4054 29.9079 42.9486C31.5942 48.4328 33.8058 54.167 36.4747 59.9654C33.7711 65.8496 31.5279 71.6754 29.8253 77.2244C28.7085 76.9045 27.5997 76.5572 26.5 76.1828V76.1828ZM33.0147 31.8354C30.4826 18.8949 32.1642 9.13331 36.3963 6.68331C40.9037 4.07384 50.8711 7.79436 61.3768 17.1228C62.0619 17.7325 62.7359 18.3545 63.3984 18.9886C59.4837 23.1923 55.6158 27.978 51.9205 33.1928C45.5837 33.7802 39.5179 34.7233 33.9411 35.987C33.5975 34.6113 33.2886 33.2272 33.0147 31.8359V31.8354ZM91.1342 46.187C89.817 43.9117 88.4509 41.665 87.0368 39.4486C91.3358 39.9923 95.4547 40.7138 99.3226 41.5959C98.1616 45.318 96.7142 49.2091 95.0105 53.1986C93.7652 50.8358 92.4729 48.4981 91.1342 46.187V46.187ZM67.4332 23.1023C70.0879 25.9786 72.7468 29.1896 75.3621 32.6738C70.0568 32.4233 64.7427 32.4222 59.4374 32.6707C62.0553 29.2186 64.7368 26.0117 67.4332 23.1023ZM43.58 46.2265C42.2581 48.519 40.9898 50.8421 39.7763 53.1938C38.1005 49.2186 36.6663 45.3096 35.4953 41.5349C39.3395 40.6749 43.4389 39.9717 47.7105 39.438C46.2807 41.668 44.9035 43.9313 43.58 46.2259V46.2265ZM47.8332 80.6223C43.42 80.1296 39.2589 79.4628 35.4158 78.6259C36.6053 74.7838 38.0711 70.7917 39.7832 66.7312C41.0015 69.0847 42.275 71.4092 43.6026 73.7028C44.9679 76.0607 46.3816 78.3702 47.8332 80.6223ZM67.5921 96.9538C64.8637 94.0107 62.1426 90.7544 59.4853 87.2523C62.0653 87.3533 64.6953 87.4049 67.3684 87.4049C70.1147 87.4049 72.8295 87.3433 75.5016 87.2244C72.8779 90.7896 70.229 94.0507 67.5921 96.9538ZM95.0647 66.5238C96.8658 70.6291 98.3837 74.6001 99.5889 78.3765C95.6826 79.268 91.4647 79.9859 87.0205 80.5191C88.4446 78.2615 89.8237 75.9758 91.1568 73.6633C92.5123 71.3128 93.8152 68.9324 95.0647 66.5238V66.5238ZM86.1711 70.7875C84.1301 74.333 81.9744 77.8111 79.7074 81.2165C75.6008 81.5073 71.4852 81.6518 67.3684 81.6496C63.1753 81.6496 59.0968 81.5191 55.1695 81.2644C52.8433 77.8669 50.6464 74.3827 48.5837 70.8191H48.5842C46.5312 67.2744 44.6135 63.653 42.8353 59.9628C44.6089 56.2717 46.5208 52.6486 48.5668 49.1012L48.5663 49.1017C50.6116 45.5534 52.7909 42.0841 55.0995 38.7012C59.1063 38.398 63.2153 38.2401 67.3679 38.2401H67.3684C71.54 38.2401 75.6542 38.3996 79.66 38.7049C81.9453 42.0827 84.1107 45.5401 86.1521 49.0707C88.205 52.6102 90.1421 56.2157 91.9605 59.8812C90.1608 63.5842 88.2297 67.222 86.1711 70.7875V70.7875ZM98.0447 6.51173C102.556 9.11384 104.311 19.607 101.476 33.3675C101.295 34.2454 101.092 35.1396 100.871 36.0465C95.2805 34.7559 89.2105 33.7965 82.8553 33.2002C79.1532 27.928 75.3168 23.1349 71.4658 18.9854C72.4751 18.0125 73.5084 17.0649 74.5647 16.1433C84.5121 7.48699 93.809 4.0691 98.0447 6.51173V6.51173ZM67.3684 47.7938C74.0132 47.7938 79.4 53.1807 79.4 59.8254C79.4 66.4701 74.0132 71.857 67.3684 71.857C60.7237 71.857 55.3368 66.4701 55.3368 59.8254C55.3368 53.1807 60.7237 47.7938 67.3684 47.7938V47.7938Z" fill="#00D8FF"/>
</g>
<defs>
<clipPath id="clip0_322_151">
<rect width="134.737" height="120" fill="white"/>
</clipPath>
</defs>
</svg>
