<svg width="62" height="50" viewBox="0 0 62 50" fill="none" xmlns="http://www.w3.org/2000/svg">
<path d="M19.3632 50C42.5986 50 55.3051 30.7656 55.3051 14.0861C55.3051 13.5398 55.2939 12.996 55.2694 12.4546C57.7359 10.6729 59.8797 8.44945 61.5706 5.91839C59.3072 6.92367 56.8714 7.60041 54.3163 7.90556C56.9243 6.34289 58.9266 3.87092 59.8712 0.924069C57.4305 2.36985 54.7277 3.42066 51.8498 3.98798C49.5447 1.53454 46.2629 0 42.629 0C35.653 0 29.9961 5.65279 29.9961 12.6206C29.9961 13.6111 30.1069 14.5746 30.3236 15.4988C19.8247 14.9709 10.5151 9.94816 4.28458 2.31078C3.19971 4.17613 2.57416 6.34295 2.57416 8.65497C2.57416 13.0342 4.80431 16.9001 8.1956 19.1618C6.1231 19.0978 4.17622 18.5293 2.47458 17.5831C2.47272 17.6361 2.47271 17.6877 2.47271 17.7443C2.47271 23.8573 6.82702 28.9611 12.6071 30.1176C11.5457 30.4068 10.4288 30.5618 9.27617 30.5618C8.46345 30.5618 7.67163 30.4819 6.90201 30.3342C8.51022 35.3494 13.1736 38.9991 18.7025 39.101C14.379 42.4872 8.93258 44.504 3.01321 44.504C1.99483 44.504 0.988773 44.4461 0 44.3293C5.59066 47.9099 12.229 49.9992 19.3639 49.9992" fill="#1DA1F2"/>
</svg>
